<svg id="visual" viewBox="0 0 900 300" width="900" height="300" xmlns="http://www.w3.org/2000/svg" xmlns:xlink="http://www.w3.org/1999/xlink" version="1.1"><rect x="0" y="0" width="900" height="300" fill="#202731"></rect><g transform="translate(441.3443079651587 148.84840435169707)"><path d="M74.2 -122.8C100 -113.5 127.5 -101.5 143.4 -80.6C159.3 -59.7 163.7 -29.8 164.9 0.7C166.1 31.2 164.3 62.5 148 82.8C131.7 103.1 101 112.4 73.9 122C46.9 131.5 23.4 141.3 -2 144.8C-27.5 148.3 -55 145.6 -77.9 133.7C-100.9 121.8 -119.3 100.6 -129.5 76.8C-139.8 53 -141.9 26.5 -144.8 -1.7C-147.7 -29.8 -151.3 -59.7 -141.3 -83.9C-131.3 -108.2 -107.7 -126.8 -81.8 -136.1C-56 -145.3 -28 -145.2 -1.9 -141.8C24.2 -138.5 48.3 -132 74.2 -122.8" fill="#001122"></path></g></svg>