<svg id="visual" viewBox="0 0 900 100" width="900" height="100" xmlns="http://www.w3.org/2000/svg" xmlns:xlink="http://www.w3.org/1999/xlink" version="1.1"><rect x="0" y="0" width="900" height="100" fill="#001122"></rect><path d="M0 5L9.3 6.2C18.7 7.3 37.3 9.7 56.2 10.7C75 11.7 94 11.3 112.8 13.5C131.7 15.7 150.3 20.3 169 19.5C187.7 18.7 206.3 12.3 225 9.2C243.7 6 262.3 6 281.2 7.8C300 9.7 319 13.3 337.8 16.3C356.7 19.3 375.3 21.7 394 20C412.7 18.3 431.3 12.7 450 9.2C468.7 5.7 487.3 4.3 506.2 3.5C525 2.7 544 2.3 562.8 5C581.7 7.7 600.3 13.3 619 15.7C637.7 18 656.3 17 675 14.3C693.7 11.7 712.3 7.3 731.2 6C750 4.7 769 6.3 787.8 7.3C806.7 8.3 825.3 8.7 844 7.7C862.7 6.7 881.3 4.3 890.7 3.2L900 2L900 0L890.7 0C881.3 0 862.7 0 844 0C825.3 0 806.7 0 787.8 0C769 0 750 0 731.2 0C712.3 0 693.7 0 675 0C656.3 0 637.7 0 619 0C600.3 0 581.7 0 562.8 0C544 0 525 0 506.2 0C487.3 0 468.7 0 450 0C431.3 0 412.7 0 394 0C375.3 0 356.7 0 337.8 0C319 0 300 0 281.2 0C262.3 0 243.7 0 225 0C206.3 0 187.7 0 169 0C150.3 0 131.7 0 112.8 0C94 0 75 0 56.2 0C37.3 0 18.7 0 9.3 0L0 0Z" fill="#202731" stroke-linecap="round" stroke-linejoin="miter"></path></svg>