<svg id="visual" viewBox="0 0 900 40" width="900" height="40" xmlns="http://www.w3.org/2000/svg" xmlns:xlink="http://www.w3.org/1999/xlink" version="1.1"><rect width="900" height="40" fill="#dd3f31"></rect><g><g transform="translate(617 27)"><path d="M0 -3.4L2.6 -2.1L3.3 0.8L1.5 3L-1.5 3L-3.3 0.8L-2.6 -2.1Z" stroke="#F7770F" fill="none" stroke-width="1"></path></g><g transform="translate(264 25)"><path d="M0 0L0 0L0 0L0 0L0 0L0 0L0 0Z" stroke="#F7770F" fill="none" stroke-width="1"></path></g><g transform="translate(129 4)"><path d="M0 -1L0.8 -0.6L1 0.2L0.4 0.9L-0.4 0.9L-1 0.2L-0.8 -0.6Z" stroke="#F7770F" fill="none" stroke-width="1"></path></g><g transform="translate(49 4)"><path d="M0 0L0 0L0 0L0 0L0 0L0 0L0 0Z" stroke="#F7770F" fill="none" stroke-width="1"></path></g><g transform="translate(34 4)"><path d="M0 -1L0.8 -0.6L1 0.2L0.4 0.9L-0.4 0.9L-1 0.2L-0.8 -0.6Z" stroke="#F7770F" fill="none" stroke-width="1"></path></g><g transform="translate(54 14)"><path d="M0 -2L1.6 -1.2L1.9 0.4L0.9 1.8L-0.9 1.8L-1.9 0.4L-1.6 -1.2Z" stroke="#F7770F" fill="none" stroke-width="1"></path></g><g transform="translate(846 1)"><path d="M0 -1L0.8 -0.6L1 0.2L0.4 0.9L-0.4 0.9L-1 0.2L-0.8 -0.6Z" stroke="#F7770F" fill="none" stroke-width="1"></path></g><g transform="translate(174 30)"><path d="M0 -2L1.6 -1.2L1.9 0.4L0.9 1.8L-0.9 1.8L-1.9 0.4L-1.6 -1.2Z" stroke="#F7770F" fill="none" stroke-width="1"></path></g><g transform="translate(282 35)"><path d="M0 -1L0.8 -0.6L1 0.2L0.4 0.9L-0.4 0.9L-1 0.2L-0.8 -0.6Z" stroke="#F7770F" fill="none" stroke-width="1"></path></g><g transform="translate(277 5)"><path d="M0 -1L0.8 -0.6L1 0.2L0.4 0.9L-0.4 0.9L-1 0.2L-0.8 -0.6Z" stroke="#F7770F" fill="none" stroke-width="1"></path></g><g transform="translate(454 37)"><path d="M0 -1L0.8 -0.6L1 0.2L0.4 0.9L-0.4 0.9L-1 0.2L-0.8 -0.6Z" stroke="#F7770F" fill="none" stroke-width="1"></path></g><g transform="translate(432 17)"><path d="M0 -1L0.8 -0.6L1 0.2L0.4 0.9L-0.4 0.9L-1 0.2L-0.8 -0.6Z" stroke="#F7770F" fill="none" stroke-width="1"></path></g><g transform="translate(504 4)"><path d="M0 0L0 0L0 0L0 0L0 0L0 0L0 0Z" stroke="#F7770F" fill="none" stroke-width="1"></path></g><g transform="translate(860 4)"><path d="M0 -2L1.6 -1.2L1.9 0.4L0.9 1.8L-0.9 1.8L-1.9 0.4L-1.6 -1.2Z" stroke="#F7770F" fill="none" stroke-width="1"></path></g><g transform="translate(709 23)"><path d="M0 -1L0.8 -0.6L1 0.2L0.4 0.9L-0.4 0.9L-1 0.2L-0.8 -0.6Z" stroke="#F7770F" fill="none" stroke-width="1"></path></g><g transform="translate(373 19)"><path d="M0 -1L0.8 -0.6L1 0.2L0.4 0.9L-0.4 0.9L-1 0.2L-0.8 -0.6Z" stroke="#F7770F" fill="none" stroke-width="1"></path></g><g transform="translate(490 27)"><path d="M0 0L0 0L0 0L0 0L0 0L0 0L0 0Z" stroke="#F7770F" fill="none" stroke-width="1"></path></g><g transform="translate(238 30)"><path d="M0 -2L1.6 -1.2L1.9 0.4L0.9 1.8L-0.9 1.8L-1.9 0.4L-1.6 -1.2Z" stroke="#F7770F" fill="none" stroke-width="1"></path></g><g transform="translate(478 17)"><path d="M0 0L0 0L0 0L0 0L0 0L0 0L0 0Z" stroke="#F7770F" fill="none" stroke-width="1"></path></g><g transform="translate(462 3)"><path d="M0 -2L1.6 -1.2L1.9 0.4L0.9 1.8L-0.9 1.8L-1.9 0.4L-1.6 -1.2Z" stroke="#F7770F" fill="none" stroke-width="1"></path></g><g transform="translate(733 7)"><path d="M0 -1L0.8 -0.6L1 0.2L0.4 0.9L-0.4 0.9L-1 0.2L-0.8 -0.6Z" stroke="#F7770F" fill="none" stroke-width="1"></path></g><g transform="translate(476 28)"><path d="M0 0L0 0L0 0L0 0L0 0L0 0L0 0Z" stroke="#F7770F" fill="none" stroke-width="1"></path></g><g transform="translate(705 36)"><path d="M0 -2L1.6 -1.2L1.9 0.4L0.9 1.8L-0.9 1.8L-1.9 0.4L-1.6 -1.2Z" stroke="#F7770F" fill="none" stroke-width="1"></path></g><g transform="translate(344 32)"><path d="M0 0L0 0L0 0L0 0L0 0L0 0L0 0Z" stroke="#F7770F" fill="none" stroke-width="1"></path></g><g transform="translate(604 3)"><path d="M0 -2L1.6 -1.2L1.9 0.4L0.9 1.8L-0.9 1.8L-1.9 0.4L-1.6 -1.2Z" stroke="#F7770F" fill="none" stroke-width="1"></path></g><g transform="translate(159 15)"><path d="M0 0L0 0L0 0L0 0L0 0L0 0L0 0Z" stroke="#F7770F" fill="none" stroke-width="1"></path></g><g transform="translate(87 32)"><path d="M0 0L0 0L0 0L0 0L0 0L0 0L0 0Z" stroke="#F7770F" fill="none" stroke-width="1"></path></g></g></svg>