<svg id="visual" viewBox="0 0 900 40" width="900" height="40" xmlns="http://www.w3.org/2000/svg" xmlns:xlink="http://www.w3.org/1999/xlink" version="1.1"><rect x="0" y="0" width="900" height="40" fill="#202731"></rect><path d="M0 26L39 26L39 16L78 16L78 32L117 32L117 32L157 32L157 18L196 18L196 10L235 10L235 13L274 13L274 25L313 25L313 35L352 35L352 31L391 31L391 18L430 18L430 27L470 27L470 34L509 34L509 21L548 21L548 18L587 18L587 26L626 26L626 16L665 16L665 11L704 11L704 26L743 26L743 12L783 12L783 28L822 28L822 31L861 31L861 13L900 13L900 25L900 0L900 0L861 0L861 0L822 0L822 0L783 0L783 0L743 0L743 0L704 0L704 0L665 0L665 0L626 0L626 0L587 0L587 0L548 0L548 0L509 0L509 0L470 0L470 0L430 0L430 0L391 0L391 0L352 0L352 0L313 0L313 0L274 0L274 0L235 0L235 0L196 0L196 0L157 0L157 0L117 0L117 0L78 0L78 0L39 0L39 0L0 0Z" fill="#202731"></path><path d="M0 21L39 21L39 19L78 19L78 14L117 14L117 17L157 17L157 25L196 25L196 22L235 22L235 30L274 30L274 24L313 24L313 33L352 33L352 31L391 31L391 20L430 20L430 31L470 31L470 11L509 11L509 30L548 30L548 19L587 19L587 26L626 26L626 20L665 20L665 24L704 24L704 29L743 29L743 28L783 28L783 15L822 15L822 9L861 9L861 27L900 27L900 14L900 0L900 0L861 0L861 0L822 0L822 0L783 0L783 0L743 0L743 0L704 0L704 0L665 0L665 0L626 0L626 0L587 0L587 0L548 0L548 0L509 0L509 0L470 0L470 0L430 0L430 0L391 0L391 0L352 0L352 0L313 0L313 0L274 0L274 0L235 0L235 0L196 0L196 0L157 0L157 0L117 0L117 0L78 0L78 0L39 0L39 0L0 0Z" fill="#323352"></path><path d="M0 27L39 27L39 15L78 15L78 27L117 27L117 6L157 6L157 17L196 17L196 14L235 14L235 19L274 19L274 20L313 20L313 26L352 26L352 11L391 11L391 18L430 18L430 12L470 12L470 19L509 19L509 22L548 22L548 21L587 21L587 25L626 25L626 24L665 24L665 16L704 16L704 12L743 12L743 20L783 20L783 26L822 26L822 22L861 22L861 22L900 22L900 12L900 0L900 0L861 0L861 0L822 0L822 0L783 0L783 0L743 0L743 0L704 0L704 0L665 0L665 0L626 0L626 0L587 0L587 0L548 0L548 0L509 0L509 0L470 0L470 0L430 0L430 0L391 0L391 0L352 0L352 0L313 0L313 0L274 0L274 0L235 0L235 0L196 0L196 0L157 0L157 0L117 0L117 0L78 0L78 0L39 0L39 0L0 0Z" fill="#5d3768"></path><path d="M0 10L39 10L39 21L78 21L78 12L117 12L117 18L157 18L157 10L196 10L196 4L235 4L235 5L274 5L274 10L313 10L313 14L352 14L352 8L391 8L391 14L430 14L430 7L470 7L470 20L509 20L509 20L548 20L548 10L587 10L587 13L626 13L626 16L665 16L665 19L704 19L704 21L743 21L743 20L783 20L783 5L822 5L822 11L861 11L861 12L900 12L900 19L900 0L900 0L861 0L861 0L822 0L822 0L783 0L783 0L743 0L743 0L704 0L704 0L665 0L665 0L626 0L626 0L587 0L587 0L548 0L548 0L509 0L509 0L470 0L470 0L430 0L430 0L391 0L391 0L352 0L352 0L313 0L313 0L274 0L274 0L235 0L235 0L196 0L196 0L157 0L157 0L117 0L117 0L78 0L78 0L39 0L39 0L0 0Z" fill="#91316a"></path><path d="M0 11L39 11L39 16L78 16L78 2L117 2L117 3L157 3L157 12L196 12L196 9L235 9L235 9L274 9L274 11L313 11L313 16L352 16L352 13L391 13L391 7L430 7L430 7L470 7L470 3L509 3L509 12L548 12L548 9L587 9L587 15L626 15L626 8L665 8L665 5L704 5L704 9L743 9L743 14L783 14L783 10L822 10L822 7L861 7L861 10L900 10L900 13L900 0L900 0L861 0L861 0L822 0L822 0L783 0L783 0L743 0L743 0L704 0L704 0L665 0L665 0L626 0L626 0L587 0L587 0L548 0L548 0L509 0L509 0L470 0L470 0L430 0L430 0L391 0L391 0L352 0L352 0L313 0L313 0L274 0L274 0L235 0L235 0L196 0L196 0L157 0L157 0L117 0L117 0L78 0L78 0L39 0L39 0L0 0Z" fill="#c02b57"></path><path d="M0 4L39 4L39 0L78 0L78 2L117 2L117 9L157 9L157 9L196 9L196 6L235 6L235 4L274 4L274 5L313 5L313 0L352 0L352 6L391 6L391 2L430 2L430 9L470 9L470 1L509 1L509 10L548 10L548 0L587 0L587 5L626 5L626 0L665 0L665 7L704 7L704 5L743 5L743 4L783 4L783 7L822 7L822 0L861 0L861 6L900 6L900 0L900 0L900 0L861 0L861 0L822 0L822 0L783 0L783 0L743 0L743 0L704 0L704 0L665 0L665 0L626 0L626 0L587 0L587 0L548 0L548 0L509 0L509 0L470 0L470 0L430 0L430 0L391 0L391 0L352 0L352 0L313 0L313 0L274 0L274 0L235 0L235 0L196 0L196 0L157 0L157 0L117 0L117 0L78 0L78 0L39 0L39 0L0 0Z" fill="#dd3f31"></path></svg>